<svg id="outline" xmlns="http://www.w3.org/2000/svg" viewBox="0 0 700.31 187.07"><defs><style>.cls-1{fill:#0087cd;}.cls-2{fill:none;}.cls-3{fill:#fff;}</style></defs><title>logo</title><path class="cls-1" d="M228.85,114.67V.25h31.64q28.45,0,43.38,14.93t14.93,42.29q0,28.45-15.62,42.83T261.5,114.67Zm10.34-9.56h22.23q22.39,0,34.28-11.66t12-36q0-24.18-13.21-35.91T255.75,9.81H239.19Z"/><path class="cls-1" d="M340.77,114.67V.25H379.1q17.41,0,26.43,8.32a27,27,0,0,1,9,20.83,24.73,24.73,0,0,1-6.06,16.32,27.94,27.94,0,0,1-15.78,9.41q13.68,2.41,20.13,9.79t6.53,19.51q0,13.84-9.09,22.08t-25.57,8.16Zm10.34-63.82h25.34q12.83,0,19.9-5.6A18.52,18.52,0,0,0,403.43,30q0-9.79-6.84-15T375.83,9.81H351.11Zm0,54.26h26.82q15.47,0,22.85-5.13t7.46-17.26q0-12.83-9.09-17.57t-27.52-4.74H351.11Z"/><path class="cls-1" d="M478,104.8,515.44.25h10.34L483.49,114.67H471.67L429.39.25h11.27Z"/><path class="cls-1" d="M543.59.25h10.8l27.05,104.16L615.73.25h12.44l35.6,104.55L690.43.25h9.87L670.45,114.67H655.92L621.79,10,588,114.67H573.44Z"/><path class="cls-1" d="M227.33,185.39l14.06-44.6h7.3l14.54,44.6h-6.39l-3.21-10.7H236.36l-3.3,10.7Zm10.51-15.66H252l-7.21-23.87Z"/><path class="cls-1" d="M285.88,185.39v-44.6h15.36q5.12,0,8,2.94t2.88,8.21q0,8.58-8.39,10.33a7.88,7.88,0,0,1,5.36,2.36q1.79,2,2,7a60.7,60.7,0,0,0,1.67,13.72h-5.94q-.88-1.33-1.21-5.82t-.51-8.88q-.33-5.76-6.57-5.76h-6.76v20.45ZM291.73,160h8.39a5.41,5.41,0,0,0,4.45-2,8.24,8.24,0,0,0,1.67-5.39,7.76,7.76,0,0,0-1.48-4.76,5.13,5.13,0,0,0-4.42-2h-8.6Z"/><path class="cls-1" d="M358.53,172.27h5.85q0,7.27-3.18,10.67t-9.76,3.39q-6.57,0-10.18-3.61t-3.58-13.67V155.82q0-16,14.12-16,12.09,0,12.09,10.27v2.82H358v-1.48q0-6.79-6.51-6.79a7.71,7.71,0,0,0-5.79,2.27q-2.21,2.27-2.21,10v12.88q0,5.88,1.64,8.79t6.33,2.88a6.08,6.08,0,0,0,5.15-2.45A11,11,0,0,0,358.53,172.27Z"/><path class="cls-1" d="M390.66,140.79h5.85V160H412V140.79h5.85v44.6H412V164.94H396.51v20.45h-5.85Z"/><path class="cls-1" d="M444.58,140.79h5.85v44.6h-5.85Z"/><path class="cls-1" d="M474.71,140.79h29.12v5H492.19v39.63h-5.85V145.76H474.71Z"/><path class="cls-1" d="M526.42,185.39v-44.6h23.3v5H532.26V160h16.18v5H532.26v15.48h17.82v5Z"/><path class="cls-1" d="M594.48,172.27h5.85q0,7.27-3.18,10.67t-9.76,3.39q-6.57,0-10.18-3.61t-3.58-13.67V155.82q0-16,14.12-16,12.09,0,12.09,10.27v2.82H594v-1.48q0-6.79-6.51-6.79a7.71,7.71,0,0,0-5.79,2.27q-2.21,2.27-2.21,10v12.88q0,5.88,1.64,8.79t6.33,2.88a6.08,6.08,0,0,0,5.15-2.45A11,11,0,0,0,594.48,172.27Z"/><path class="cls-1" d="M621.23,140.79h29.12v5H638.71v39.63h-5.85V145.76H621.23Z"/><path class="cls-1" d="M670.81,172.27h5.85v1.58a7.48,7.48,0,0,0,2,5.48q2,2,5.91,2a8,8,0,0,0,5.45-1.82,6.65,6.65,0,0,0,2.09-5.3,6.39,6.39,0,0,0-2.09-4.79,30.68,30.68,0,0,0-7.3-4.61q-6.42-3.3-8.7-6.12a10.64,10.64,0,0,1-2.24-6.79,11.56,11.56,0,0,1,3.48-8.76q3.48-3.33,9.76-3.33t9.33,3a11.07,11.07,0,0,1,3.12,8.33v1.73h-5.85q0-8.12-6.94-8.12a7.29,7.29,0,0,0-5.18,1.76,6.16,6.16,0,0,0-1.88,4.73,7.06,7.06,0,0,0,2.85,5.51,39.13,39.13,0,0,0,7.09,4.18,23.79,23.79,0,0,1,7.67,5.42A11.53,11.53,0,0,1,698,174q0,12.3-14.33,12.3-6.12,0-9.48-3.18t-3.33-9.24Z"/><polygon class="cls-1" points="0 82.61 133.86 55.4 0 36.34 0 82.61"/><polygon class="cls-1" points="0 33.54 141.96 53.76 181.36 45.75 181.36 35.66 0 7.43 0 33.54"/><polygon class="cls-1" points="0 0 0 6.44 181.36 34.67 181.36 0 0 0"/><polygon class="cls-1" points="146.07 54.34 181.36 59.37 181.36 47.17 146.07 54.34"/><polygon class="cls-1" points="0 84.03 0 117.27 181.36 149.11 181.36 62.17 137.97 55.99 0 84.03"/><polygon class="cls-1" points="0 119.61 0 165.46 0 187.06 0 187.07 181.36 187.07 181.36 187.06 181.36 165.46 181.36 151.44 0 119.61"/><polygon class="cls-2" points="186.82 58.86 186.82 46.9 152.12 53.95 186.82 58.86"/><polygon class="cls-3" points="-47.45 -1.7 -47.86 0.91 186.82 37.31 186.82 34.65 -47.45 -1.7"/><polygon class="cls-3" points="186.82 46.9 186.82 43.59 142.53 52.59 152.12 53.95 186.82 46.9"/><polygon class="cls-3" points="-49 91.48 -48.35 94.65 136.3 57.16 126.7 55.8 -49 91.48"/><polygon class="cls-3" points="152.12 53.95 142.53 52.59 -48.26 25.56 -49.02 30.91 126.7 55.8 136.3 57.16 186.82 64.32 186.82 58.86 152.12 53.95"/><polygon class="cls-3" points="-47.76 108.18 -48.5 112.43 186.82 153.31 186.82 148.93 -47.76 108.18"/></svg>