<?xml version="1.0" encoding="utf-8"?>
<!-- Generator: Adobe Illustrator 20.1.0, SVG Export Plug-In . SVG Version: 6.00 Build 0)  -->
<!DOCTYPE svg PUBLIC "-//W3C//DTD SVG 1.1//EN" "http://www.w3.org/Graphics/SVG/1.1/DTD/svg11.dtd">
<svg version="1.1" id="Layer_1" xmlns="http://www.w3.org/2000/svg" xmlns:xlink="http://www.w3.org/1999/xlink" x="0px" y="0px"
	 viewBox="0 0 471.8 186.3" enable-background="new 0 0 471.8 186.3" xml:space="preserve">
<path fill="#FFFFFF" d="M1.5,114.7V0.2h31.6c19,0,33.4,5,43.4,14.9c10,9.9,14.9,24,14.9,42.3c0,19-5.2,33.2-15.6,42.8
	c-10.4,9.6-24.3,14.4-41.7,14.4H1.5z M11.9,105.1h22.2c14.9,0,26.4-3.9,34.3-11.7c8-7.8,12-19.8,12-36c0-16.1-4.4-28.1-13.2-35.9
	C58.3,13.7,45.4,9.8,28.4,9.8H11.9V105.1z"/>
<path fill="#FFFFFF" d="M113.4,114.7V0.2h38.3c11.6,0,20.4,2.8,26.4,8.3c6,5.5,9,12.4,9,20.8c0,6.1-2,11.5-6.1,16.3
	c-4,4.8-9.3,8-15.8,9.4c9.1,1.6,15.8,4.9,20.1,9.8c4.4,4.9,6.5,11.4,6.5,19.5c0,9.2-3,16.6-9.1,22.1c-6.1,5.4-14.6,8.2-25.6,8.2
	H113.4z M123.8,50.9h25.3c8.6,0,15.2-1.9,19.9-5.6c4.7-3.8,7.1-8.9,7.1-15.2c0-6.5-2.3-11.5-6.8-15c-4.5-3.5-11.4-5.2-20.8-5.2
	h-24.7V50.9z M123.8,105.1h26.8c10.3,0,17.9-1.7,22.9-5.1c5-3.5,7.5-9.2,7.5-17.3c0-8.6-3-14.4-9.1-17.6c-6.1-3.2-15.2-4.7-27.5-4.7
	h-20.5V105.1z"/>
<path fill="#FFFFFF" d="M250.7,104.8L288.1,0.2h10.3l-42.3,114.4h-11.8L202.1,0.2h11.3L250.7,104.8z"/>
<path fill="#FFFFFF" d="M316.3,0.2h10.8l27.1,104.2L388.4,0.2h12.4l35.6,104.6L463.1,0.2h9.9l-29.9,114.4h-14.5L394.5,10
	l-33.8,104.6h-14.5L316.3,0.2z"/>
<path fill="#FFFFFF" d="M0,185.4l14.1-44.6h7.3l14.5,44.6h-6.4l-3.2-10.7H9l-3.3,10.7H0z M10.5,169.7h14.2l-7.2-23.9L10.5,169.7z"/>
<path fill="#FFFFFF" d="M58.6,185.4v-44.6h15.4c3.4,0,6.1,1,8,2.9c1.9,1.9,2.9,4.7,2.9,8.2c0,5.7-2.8,9.2-8.4,10.3
	c2.4,0.2,4.2,1,5.4,2.4c1.2,1.3,1.9,3.7,2,7c0.2,5.8,0.7,10.4,1.7,13.7h-5.9c-0.6-0.9-1-2.8-1.2-5.8c-0.2-3-0.4-5.9-0.5-8.9
	c-0.2-3.8-2.4-5.8-6.6-5.8h-6.8v20.5H58.6z M64.4,160h8.4c1.9,0,3.4-0.7,4.5-2c1.1-1.4,1.7-3.2,1.7-5.4c0-1.8-0.5-3.4-1.5-4.8
	c-1-1.4-2.5-2-4.4-2h-8.6V160z"/>
<path fill="#FFFFFF" d="M131.2,172.3h5.8c0,4.8-1.1,8.4-3.2,10.7c-2.1,2.3-5.4,3.4-9.8,3.4c-4.4,0-7.8-1.2-10.2-3.6
	c-2.4-2.4-3.6-7-3.6-13.7v-13.2c0-10.6,4.7-16,14.1-16c8.1,0,12.1,3.4,12.1,10.3v2.8h-5.8v-1.5c0-4.5-2.2-6.8-6.5-6.8
	c-2.4,0-4.3,0.8-5.8,2.3c-1.5,1.5-2.2,4.9-2.2,10v12.9c0,3.9,0.5,6.8,1.6,8.8c1.1,1.9,3.2,2.9,6.3,2.9c2.2,0,3.9-0.8,5.2-2.5
	C130.6,177.4,131.2,175.1,131.2,172.3z"/>
<path fill="#FFFFFF" d="M163.3,140.8h5.8V160h15.5v-19.2h5.8v44.6h-5.8v-20.5h-15.5v20.5h-5.8V140.8z"/>
<path fill="#FFFFFF" d="M217.2,140.8h5.8v44.6h-5.8V140.8z"/>
<path fill="#FFFFFF" d="M247.4,140.8h29.1v5h-11.6v39.6H259v-39.6h-11.6V140.8z"/>
<path fill="#FFFFFF" d="M299.1,185.4v-44.6h23.3v5h-17.5V160h16.2v5h-16.2v15.5h17.8v5H299.1z"/>
<path fill="#FFFFFF" d="M367.2,172.3h5.8c0,4.8-1.1,8.4-3.2,10.7c-2.1,2.3-5.4,3.4-9.8,3.4c-4.4,0-7.8-1.2-10.2-3.6
	c-2.4-2.4-3.6-7-3.6-13.7v-13.2c0-10.6,4.7-16,14.1-16c8.1,0,12.1,3.4,12.1,10.3v2.8h-5.8v-1.5c0-4.5-2.2-6.8-6.5-6.8
	c-2.4,0-4.3,0.8-5.8,2.3c-1.5,1.5-2.2,4.9-2.2,10v12.9c0,3.9,0.5,6.8,1.6,8.8c1.1,1.9,3.2,2.9,6.3,2.9c2.2,0,3.9-0.8,5.2-2.5
	C366.5,177.4,367.2,175.1,367.2,172.3z"/>
<path fill="#FFFFFF" d="M393.9,140.8H423v5h-11.6v39.6h-5.8v-39.6h-11.6V140.8z"/>
<path fill="#FFFFFF" d="M443.5,172.3h5.8v1.6c0,2.3,0.7,4.1,2,5.5s3.3,2,5.9,2c2.2,0,4.1-0.6,5.5-1.8c1.4-1.2,2.1-3,2.1-5.3
	c0-1.9-0.7-3.5-2.1-4.8c-1.4-1.3-3.8-2.9-7.3-4.6c-4.3-2.2-7.2-4.2-8.7-6.1c-1.5-1.9-2.2-4.2-2.2-6.8c0-3.6,1.2-6.5,3.5-8.8
	c2.3-2.2,5.6-3.3,9.8-3.3c4.1,0,7.3,1,9.3,3c2.1,2,3.1,4.8,3.1,8.3v1.7h-5.8c0-5.4-2.3-8.1-6.9-8.1c-2.2,0-3.9,0.6-5.2,1.8
	c-1.3,1.2-1.9,2.7-1.9,4.7c0,2.1,0.9,3.9,2.8,5.5c1.2,1,3.5,2.4,7.1,4.2c3.6,1.8,6.1,3.6,7.7,5.4c1.8,2.2,2.7,4.7,2.7,7.6
	c0,8.2-4.8,12.3-14.3,12.3c-4.1,0-7.2-1.1-9.5-3.2c-2.2-2.1-3.3-5.2-3.3-9.2V172.3z"/>
</svg>
