<svg width="188px" height="44px" viewBox="120 15 188 44" version="1.1" xmlns="http://www.w3.org/2000/svg" xmlns:xlink="http://www.w3.org/1999/xlink">
    <!-- Generator: Sketch 42 (36781) - http://www.bohemiancoding.com/sketch -->
    <desc>Created with Sketch.</desc>
    <defs>
        <polygon id="path-1" points="0 42.8108108 187.887373 42.8108108 187.887373 0.170369553 0 0.170369553"></polygon>
        <polygon id="path-3" points="0.26597235 2.25412024 125.920725 2.25412024 125.920725 0.0564986211 0.26597235 0.0564986211"></polygon>
        <polygon id="path-5" points="14.0373333 0.170369553 0.115803379 0.170369553 0.115803379 7.47564126 14.0373333 7.47564126 14.0373333 0.170369553"></polygon>
    </defs>
    <g id="Page-1" stroke="none" stroke-width="1" fill="none" fill-rule="evenodd" transform="translate(120.000000, 15.000000)">
        <polygon id="Fill-1" fill="#003D89" points="61.1431158 3.44932819 61.1431158 13.0817606 67.190016 13.0817606 67.190016 14.9861136 58.8732541 14.9861136 58.8732541 3.44932819"></polygon>
        <polygon id="Fill-2" fill="#003D89" points="79.8826439 14.986201 71.3296547 14.986201 71.3296547 3.44941555 79.7191908 3.44941555 79.7191908 5.35376856 73.5631293 5.35376856 73.5631293 8.15569244 78.3936608 8.15569244 78.3936608 10.0419892 73.5631293 10.0419892 73.5631293 13.0815568 79.8826439 13.0815568"></polygon>
        <path d="M87.3632823,10.3714286 L90.8498015,10.3714286 L89.1245911,6.04957529 L89.0521057,6.04957529 L87.3632823,10.3714286 Z M90.4322163,3.44918257 L95.0990058,14.9862592 L92.6838845,14.9862592 L91.5400012,12.1292929 L86.6733714,12.1292929 L85.5655865,14.9862592 L83.2775312,14.9862592 L87.9082224,3.44918257 L90.4322163,3.44918257 Z" id="Fill-3" fill="#003D89"></path>
        <g id="Group-29" transform="translate(0.000000, 0.120860)">
            <path d="M103.070061,13.0340863 C105.485183,13.0340863 106.8471,11.5691993 106.8471,9.07860033 C106.8471,6.6246963 105.485183,5.15951815 103.070061,5.15951815 L101.163204,5.15951815 L101.163204,13.0340863 L103.070061,13.0340863 L103.070061,13.0340863 Z M98.8933425,3.3285551 L103.215321,3.3285551 C106.90168,3.3285551 109.189736,5.48919051 109.189736,9.09694782 C109.189736,12.7044139 106.90168,14.8653405 103.215321,14.8653405 L98.8933425,14.8653405 L98.8933425,3.3285551 L98.8933425,3.3285551 Z" id="Fill-4" fill="#003D89"></path>
            <polygon id="Fill-6" fill="#003D89" points="121.918289 14.8653405 113.3653 14.8653405 113.3653 3.3285551 121.754836 3.3285551 121.754836 5.23290811 115.598774 5.23290811 115.598774 8.03483199 120.429306 8.03483199 120.429306 9.92112874 115.598774 9.92112874 115.598774 12.9606963 121.918289 12.9606963"></polygon>
            <path d="M131.069557,8.80391219 C132.721993,8.80391219 133.484678,8.25436117 133.484678,7.0093529 C133.484678,5.85549961 132.721993,5.17809862 131.069557,5.17809862 L128.436691,5.17809862 L128.436691,8.80391219 L131.069557,8.80391219 Z M133.575646,14.8652823 C133.339419,14.5539574 133.194159,13.7664715 133.10348,12.4847682 C133.012512,11.1844263 132.431474,10.5984715 131.124138,10.5984715 L128.436691,10.5984715 L128.436691,14.8652823 L126.202927,14.8652823 L126.202927,3.32849686 L131.37827,3.32849686 C134.301944,3.32849686 135.736347,4.70193756 135.736347,6.84451671 C135.736347,8.58403354 134.610657,9.59139812 133.212353,9.7745818 C134.519689,10.0308642 135.191695,10.8000026 135.318761,12.1550959 C135.464021,13.8582089 135.518602,14.4441637 135.8998,14.8652823 L133.575646,14.8652823 Z" id="Fill-8" fill="#003D89"></path>
            <path d="M141.564751,10.671745 C141.65543,12.4663042 142.944861,13.2721377 144.542717,13.2721377 C145.959215,13.2721377 146.867159,12.7045304 146.867159,11.7338608 C146.867159,10.8549286 146.177249,10.5252563 144.978496,10.2870301 L142.799602,9.88425902 C141.019811,9.55458665 139.785249,8.56586078 139.785249,6.66121655 C139.785249,4.50058114 141.474072,3.10850171 144.143325,3.10850171 C147.139485,3.10850171 148.828308,4.66512609 148.864696,7.22911506 L146.77648,7.30221379 C146.703706,5.72753315 145.686889,4.90335223 144.125132,4.90335223 C142.781408,4.90335223 142.018723,5.5076545 142.018723,6.49638036 C142.018723,7.33890877 142.617955,7.63188616 143.652966,7.83341732 L145.759375,8.21784093 C148.011043,8.63895951 149.064536,9.71942284 149.064536,11.5873721 C149.064536,13.8580924 147.121292,15.0850445 144.542717,15.0850445 C141.601138,15.0850445 139.476536,13.5467676 139.476536,10.7631912 L141.564751,10.671745 Z" id="Fill-10" fill="#003D89"></path>
            <polygon id="Fill-12" fill="#003D89" points="153.349001 14.8653405 153.349001 3.3285551 155.618863 3.3285551 155.618863 8.03483199 161.266371 8.03483199 161.266371 3.3285551 163.536233 3.3285551 163.536233 14.8653405 161.266371 14.8653405 161.266371 9.92112874 155.618863 9.92112874 155.618863 14.8653405"></polygon>
            <mask id="mask-2" fill="white">
                <use xlink:href="#path-1"></use>
            </mask>
            <g id="Clip-15"></g>
            <polygon id="Fill-14" fill="#003D89" mask="url(#mask-2)" points="168.23863 14.8652532 170.508492 14.8652532 170.508492 3.32846773 168.23863 3.32846773"></polygon>
            <path d="M179.696667,9.02364523 C181.403684,9.02364523 182.148175,8.3643005 182.148175,7.11900099 C182.148175,5.87399272 181.403684,5.17795301 179.696667,5.17795301 L177.462903,5.17795301 L177.462903,9.02364523 L179.696667,9.02364523 Z M177.462903,14.8654279 L175.211235,14.8654279 L175.211235,3.32835124 L179.769152,3.32835124 C182.692826,3.32835124 184.363456,4.70179195 184.363456,7.1006535 C184.363456,9.49980629 182.692826,10.8915945 179.769152,10.8915945 L177.462903,10.8915945 L177.462903,14.8654279 Z" id="Fill-16" fill="#003D89" mask="url(#mask-2)"></path>
            <path d="M63.0360246,36.6323371 C64.4900645,36.6323371 65.1614931,36.1488953 65.1614931,35.0529968 C65.1614931,34.037769 64.4900645,33.4416212 63.0360246,33.4416212 L60.7190906,33.4416212 L60.7190906,36.6323371 L63.0360246,36.6323371 Z M65.2411982,41.9665059 C65.0335607,41.6924585 64.9056283,40.9996223 64.8259232,39.8713972 C64.7459293,38.7274458 64.2344885,38.2116774 63.0839631,38.2116774 L60.7190906,38.2116774 L60.7190906,41.9665059 L58.753321,41.9665059 L58.753321,31.8139367 L63.3077727,31.8139367 C65.8805714,31.8139367 67.1428571,33.0225412 67.1428571,34.9079643 C67.1428571,36.4389604 66.1523195,37.3254645 64.9218003,37.4865147 C66.0723257,37.712218 66.6634716,38.3890365 66.775232,39.5813322 C66.9031644,41.080293 66.9511029,41.5957701 67.2866728,41.9665059 L65.2411982,41.9665059 Z" id="Fill-17" fill="#003D89" mask="url(#mask-2)"></path>
            <polygon id="Fill-18" fill="#003D89" mask="url(#mask-2)" points="70.0346206 41.966535 70.0346206 31.8139658 72.0321567 31.8139658 72.0321567 35.9555477 77.0018833 35.9555477 77.0018833 31.8139658 78.9994194 31.8139658 78.9994194 41.966535 77.0018833 41.966535 77.0018833 37.6155587 72.0321567 37.6155587 72.0321567 41.966535"></polygon>
            <path d="M86.8448528,33.3931896 C84.9911324,33.3931896 83.8088406,34.7631356 83.8088406,36.8902795 C83.8088406,39.0174235 84.9911324,40.3870782 86.8448528,40.3870782 C88.6985733,40.3870782 89.8811539,39.0174235 89.8811539,36.8902795 C89.8811539,34.7631356 88.6985733,33.3931896 86.8448528,33.3931896 M86.8448528,42.1597953 C83.9047177,42.1597953 81.7313106,40.0166336 81.7313106,36.8902795 C81.7313106,33.7639254 83.9047177,31.6204726 86.8448528,31.6204726 C89.7691048,31.6204726 91.9425118,33.7639254 91.9425118,36.8902795 C91.9425118,40.0166336 89.7691048,42.1597953 86.8448528,42.1597953" id="Fill-19" fill="#003D89" mask="url(#mask-2)"></path>
            <path d="M98.3337899,40.3550138 C100.459258,40.3550138 101.657433,39.0657386 101.657433,36.8742328 C101.657433,34.7147623 100.459258,33.425487 98.3337899,33.425487 L96.6559404,33.425487 L96.6559404,40.3550138 L98.3337899,40.3550138 Z M94.6584043,31.8138202 L98.4617223,31.8138202 C101.705661,31.8138202 103.71908,33.7155521 103.71908,36.8902504 C103.71908,40.0649487 101.705661,41.9663894 98.4617223,41.9663894 L94.6584043,41.9663894 L94.6584043,31.8138202 Z" id="Fill-20" fill="#003D89" mask="url(#mask-2)"></path>
            <polygon id="Fill-21" fill="#003D89" mask="url(#mask-2)" points="113.977382 41.966535 106.45074 41.966535 106.45074 31.8139658 113.833567 31.8139658 113.833567 33.4899945 108.416221 33.4899945 108.416221 35.9555477 112.667158 35.9555477 112.667158 37.6155587 108.416221 37.6155587 108.416221 40.2905063 113.977382 40.2905063"></polygon>
            <polygon id="Fill-22" fill="#003D89" mask="url(#mask-2)" points="125.401776 41.966535 127.399312 41.966535 127.399312 31.8139658 125.401776 31.8139658"></polygon>
            <path d="M131.88922,38.2761266 C131.969214,39.855467 133.103856,40.564612 134.509957,40.564612 C135.756359,40.564612 136.555432,40.0648613 136.555432,39.2106837 C136.555432,38.4371768 135.948114,38.1471117 134.893465,37.9377174 L132.975923,37.5832905 C131.409834,37.2929341 130.323131,36.4227389 130.323131,34.7470014 C130.323131,32.8452695 131.809226,31.6206473 134.158504,31.6206473 C136.795124,31.6206473 138.28122,32.990302 138.313275,35.2464609 L136.475438,35.3108227 C136.411616,33.9251504 135.516667,33.1999876 134.142332,33.1999876 C132.96004,33.1999876 132.2889,33.7317736 132.2889,34.6019689 C132.2889,35.3431493 132.816224,35.6008878 133.727057,35.7782469 L135.580777,36.1166562 C137.562141,36.4873919 138.488857,37.4379667 138.488857,39.0819601 C138.488857,41.0800891 136.778952,42.15997 134.509957,42.15997 C131.921275,42.15997 130.051382,40.8063329 130.051382,38.3567974 L131.88922,38.2761266 Z" id="Fill-23" fill="#003D89" mask="url(#mask-2)"></path>
            <polygon id="Fill-24" fill="#003D89" mask="url(#mask-2)" points="143.314248 31.8139658 143.314248 40.2905063 148.635428 40.2905063 148.635428 41.966535 141.316712 41.966535 141.316712 31.8139658"></polygon>
            <path d="M154.147986,37.9054782 L157.216054,37.9054782 L155.698192,34.1023056 L155.634082,34.1023056 L154.147986,37.9054782 Z M156.848718,31.8138202 L160.95555,41.9663894 L158.830082,41.9663894 L157.823372,39.452492 L153.540669,39.452492 L152.566014,41.9663894 L150.552595,41.9663894 L154.627372,31.8138202 L156.848718,31.8138202 Z" id="Fill-25" fill="#003D89" mask="url(#mask-2)"></path>
            <polygon id="Fill-26" fill="#003D89" mask="url(#mask-2)" points="170.09544 38.5823259 170.09544 31.8138493 171.949161 31.8138493 171.949161 41.9664185 170.351016 41.9664185 165.205708 34.8114798 165.205708 41.9664185 163.351698 41.9664185 163.351698 31.8138493 165.333351 31.8138493"></polygon>
            <path d="M178.909839,40.3549555 C181.035019,40.3549555 182.233771,39.0656803 182.233771,36.8741745 C182.233771,34.714704 181.035019,33.4254288 178.909839,33.4254288 L177.23199,33.4254288 L177.23199,40.3549555 L178.909839,40.3549555 Z M175.234453,31.8140532 L179.037771,31.8140532 C182.28171,31.8140532 184.295129,33.7154939 184.295129,36.8901922 C184.295129,40.0648905 182.28171,41.9666224 179.037771,41.9666224 L175.234453,41.9666224 L175.234453,31.8140532 Z" id="Fill-27" fill="#003D89" mask="url(#mask-2)"></path>
            <polygon id="Fill-28" fill="#EDAA00" mask="url(#mask-2)" points="58.6008418 24.3873094 184.255594 24.3873094 184.255594 22.189979 58.6008418 22.189979"></polygon>
        </g>
        <g id="Group-32" transform="translate(58.334869, 22.254341)">
            <mask id="mask-4" fill="white">
                <use xlink:href="#path-3"></use>
            </mask>
            <g id="Clip-31"></g>
            <polygon id="Fill-30" fill="#ECA91F" mask="url(#mask-4)" points="-3.36551767 5.91633756 129.552504 5.91633756 129.552504 -3.6057187 -3.36551767 -3.6057187"></polygon>
        </g>
        <g id="Group-48" transform="translate(0.000000, 0.120860)">
            <g id="Group-35" transform="translate(19.059908, 0.000000)">
                <mask id="mask-6" fill="white">
                    <use xlink:href="#path-5"></use>
                </mask>
                <g id="Clip-34"></g>
                <path d="M14.0373333,7.47564126 C12.0626114,7.41011451 7.49256528,7.2586749 7.13013825,7.24673447 C6.85521352,6.96948351 1.68304762,1.7515155 0.115803379,0.170136569 C2.08965899,0.23595455 6.65970507,0.386811693 7.02242089,0.399334584 C7.29763441,0.676294319 12.4700891,5.89455356 14.0373333,7.47564126" id="Fill-33" fill="#003D89" mask="url(#mask-6)"></path>
            </g>
            <path d="M32.0833407,25.1538851 C30.1089075,25.0889408 25.5391502,24.9375012 25.1767232,24.9255607 C24.9020873,24.6477273 19.7299214,19.4297593 18.1629659,17.8489628 C20.1368215,17.9144896 24.7071564,18.0656379 25.0690058,18.0778696 C25.3442194,18.3554118 30.5169628,23.5733798 32.0833407,25.1538851" id="Fill-36" fill="#003D89"></path>
            <path d="M31.0482722,42.8108108 C29.0747054,42.7449928 24.5037929,42.5935532 24.1419435,42.5816128 C23.8670187,42.3043618 18.6939865,37.0866851 17.1273198,35.5058886 C19.1011754,35.5711241 23.6717991,35.7225637 24.0342261,35.7345041 C24.3091508,36.0111726 29.4818943,41.2297231 31.0482722,42.8108108" id="Fill-38" fill="#003D89"></path>
            <path d="M33.1902015,8.66814076 C31.6789819,10.1936035 25.3632215,16.5642599 25.0524873,16.8782058 C24.6496301,16.8648093 19.8982261,16.7078363 18.0369972,16.6458043 C19.5476393,15.120924 25.8636885,8.74997639 26.1744227,8.43661291 C26.5772799,8.44942703 31.3283951,8.60698246 33.1902015,8.66814076" id="Fill-40" fill="#EDAA00"></path>
            <path d="M32.1769942,26.346734 C30.6651969,27.8716143 24.3500141,34.2434356 24.0392799,34.5565079 C23.6364227,34.5434025 18.8844412,34.3861383 17.0232123,34.3241063 C18.534432,32.799226 24.8496147,26.4282784 25.160349,26.1149149 C25.5634949,26.1280203 30.3151877,26.2852845 32.1769942,26.346734" id="Fill-42" fill="#EDAA00"></path>
            <path d="M25.1039201,7.83312609 C24.3435453,8.60051715 15.8358955,17.1839391 15.8358955,17.1839391 C15.8358955,17.1839391 23.3394347,24.7535894 24.0911459,25.5119523 C23.3660031,26.2429397 16.3802581,33.2901233 15.655404,34.0208194 C14.8843441,33.2429441 0.772215054,19.005874 0,18.2274162 C0.77827957,17.4428426 16.9257757,1.15318345 17.7037665,0.367736128 C18.4150476,1.08503563 24.3929278,7.11611782 25.1039201,7.83312609" id="Fill-44" fill="#003D89"></path>
            <path d="M50.2241278,24.7540554 C49.4458482,25.5389202 33.2983521,41.8282881 32.5203613,42.613153 C31.809369,41.8958535 25.8309112,35.8653538 25.1202077,35.147763 C25.8802937,34.3812457 34.3882323,25.7975325 34.3882323,25.7975325 C34.3882323,25.7975325 26.8846931,18.2272997 26.1335594,17.469228 C26.8578359,16.7385319 33.8438697,9.69134826 34.568435,8.95977849 C35.3400725,9.73852752 49.4527791,23.9755976 50.2241278,24.7540554" id="Fill-46" fill="#EDAA00"></path>
        </g>
    </g>
</svg>